<svg xmlns="http://www.w3.org/2000/svg" viewBox="0 0 100.71 112.82"><defs><style>.cls-1{fill:#86c3d0;}.cls-2{fill:#fff;}</style></defs><g id="API"><path class="cls-1" d="M50.35,13.37a43,43,0,1,0,43.05,43A43,43,0,0,0,50.35,13.37Z"/><path class="cls-2" d="M50.35,78.51a22.1,22.1,0,1,1,22.11-22.1A22.13,22.13,0,0,1,50.35,78.51Zm0-42.5a20.4,20.4,0,1,0,20.41,20.4A20.42,20.42,0,0,0,50.35,36Z"/><path class="cls-2" d="M50.35,59.78a3.38,3.38,0,1,1,3.38-3.37A3.37,3.37,0,0,1,50.35,59.78Zm0-5.05A1.68,1.68,0,1,0,52,56.41,1.68,1.68,0,0,0,50.35,54.73Z"/><path class="cls-2" d="M52,55.35a.84.84,0,0,1-.55-.21.85.85,0,0,1-.09-1.2l9.76-11.19a.85.85,0,0,1,1.29,1.11l-9.76,11.2A.87.87,0,0,1,52,55.35Z"/></g></svg>